<svg width="24" height="24" viewBox="0 0 24 24" fill="none" xmlns="http://www.w3.org/2000/svg">
    <g id="heart">
        <path d="M12 21.6501C11.69 21.6501 11.39 21.6101 11.14 21.5201C7.32 20.2101 1.25 15.5601 1.25 8.6901C1.25 5.1901 4.08 2.3501 7.56 2.3501C9.25 2.3501 10.83 3.0101 12 4.1901C13.17 3.0101 14.75 2.3501 16.44 2.3501C19.92 2.3501 22.75 5.2001 22.75 8.6901C22.75 15.5701 16.68 20.2101 12.86 21.5201C12.61 21.6101 12.31 21.6501 12 21.6501ZM7.56 3.8501C4.91 3.8501 2.75 6.0201 2.75 8.6901C2.75 15.5201 9.32 19.3201 11.63 20.1101C11.81 20.1701 12.2 20.1701 12.38 20.1101C14.68 19.3201 21.26 15.5301 21.26 8.6901C21.26 6.0201 19.1 3.8501 16.45 3.8501C14.93 3.8501 13.52 4.5601 12.61 5.7901C12.33 6.1701 11.69 6.1701 11.41 5.7901C10.48 4.5501 9.08 3.8501 7.56 3.8501Z"
              fill="black"/>
    </g>
    <g id="chart">
        <path d="M2 22H22" stroke="#263141" stroke-width="1.5" stroke-miterlimit="10" stroke-linecap="round"
              stroke-linejoin="round"/>
        <path d="M9.75 4V22H14.25V4C14.25 2.9 13.8 2 12.45 2H11.55C10.2 2 9.75 2.9 9.75 4Z" stroke="#263141"
              stroke-width="1.5" stroke-linecap="round" stroke-linejoin="round"/>
        <path d="M3 10V22H7V10C7 8.9 6.6 8 5.4 8H4.6C3.4 8 3 8.9 3 10Z" stroke="#263141" stroke-width="1.5"
              stroke-linecap="round" stroke-linejoin="round"/>
        <path d="M17 15V22H21V15C21 13.9 20.6 13 19.4 13H18.6C17.4 13 17 13.9 17 15Z" stroke="#263141"
              stroke-width="1.5" stroke-linecap="round" stroke-linejoin="round"/>

    </g>
    <g id="person">
        <path d="M12.1596 11.62C12.1296 11.62 12.1096 11.62 12.0796 11.62C12.0296 11.61 11.9596 11.61 11.8996 11.62C8.99957 11.53 6.80957 9.25 6.80957 6.44C6.80957 3.58 9.13957 1.25 11.9996 1.25C14.8596 1.25 17.1896 3.58 17.1896 6.44C17.1796 9.25 14.9796 11.53 12.1896 11.62C12.1796 11.62 12.1696 11.62 12.1596 11.62ZM11.9996 2.75C9.96957 2.75 8.30957 4.41 8.30957 6.44C8.30957 8.44 9.86957 10.05 11.8596 10.12C11.9096 10.11 12.0496 10.11 12.1796 10.12C14.1396 10.03 15.6796 8.42 15.6896 6.44C15.6896 4.41 14.0296 2.75 11.9996 2.75Z"
              fill="#263141"/>
        <path d="M12.1696 22.55C10.2096 22.55 8.23961 22.05 6.74961 21.05C5.35961 20.13 4.59961 18.87 4.59961 17.5C4.59961 16.13 5.35961 14.86 6.74961 13.93C9.74961 11.94 14.6096 11.94 17.5896 13.93C18.9696 14.85 19.7396 16.11 19.7396 17.48C19.7396 18.85 18.9796 20.12 17.5896 21.05C16.0896 22.05 14.1296 22.55 12.1696 22.55ZM7.57961 15.19C6.61961 15.83 6.09961 16.65 6.09961 17.51C6.09961 18.36 6.62961 19.18 7.57961 19.81C10.0696 21.48 14.2696 21.48 16.7596 19.81C17.7196 19.17 18.2396 18.35 18.2396 17.49C18.2396 16.64 17.7096 15.82 16.7596 15.19C14.2696 13.53 10.0696 13.53 7.57961 15.19Z"
              fill="#263141"/>
    </g>

    <g id="search">
        <path d="M11.5 21.75C5.85 21.75 1.25 17.15 1.25 11.5C1.25 5.85 5.85 1.25 11.5 1.25C17.15 1.25 21.75 5.85 21.75 11.5C21.75 17.15 17.15 21.75 11.5 21.75ZM11.5 2.75C6.67 2.75 2.75 6.68 2.75 11.5C2.75 16.32 6.67 20.25 11.5 20.25C16.33 20.25 20.25 16.32 20.25 11.5C20.25 6.68 16.33 2.75 11.5 2.75Z"
        />
        <path d="M22.0004 22.7499C21.8104 22.7499 21.6204 22.6799 21.4704 22.5299L19.4704 20.5299C19.1804 20.2399 19.1804 19.7599 19.4704 19.4699C19.7604 19.1799 20.2404 19.1799 20.5304 19.4699L22.5304 21.4699C22.8204 21.7599 22.8204 22.2399 22.5304 22.5299C22.3804 22.6799 22.1904 22.7499 22.0004 22.7499Z"
        />

    </g>

    <!--    arrows-->
    <g id="arrowDown">
        <path d="M9.64645 12.9799L5.85355 9.18705C5.53857 8.87207 5.76165 8.3335 6.20711 8.3335H13.7929C14.2383 8.3335 14.4614 8.87207 14.1464 9.18705L10.3536 12.9799C10.1583 13.1752 9.84171 13.1752 9.64645 12.9799Z"
        />
    </g>

</svg>
