<svg width="24" height="24" viewBox="0 0 24 24" fill="none" xmlns="http://www.w3.org/2000/svg">
    <g id="heart">
        <path d="M12 21.6501C11.69 21.6501 11.39 21.6101 11.14 21.5201C7.32 20.2101 1.25 15.5601 1.25 8.6901C1.25 5.1901 4.08 2.3501 7.56 2.3501C9.25 2.3501 10.83 3.0101 12 4.1901C13.17 3.0101 14.75 2.3501 16.44 2.3501C19.92 2.3501 22.75 5.2001 22.75 8.6901C22.75 15.5701 16.68 20.2101 12.86 21.5201C12.61 21.6101 12.31 21.6501 12 21.6501ZM7.56 3.8501C4.91 3.8501 2.75 6.0201 2.75 8.6901C2.75 15.5201 9.32 19.3201 11.63 20.1101C11.81 20.1701 12.2 20.1701 12.38 20.1101C14.68 19.3201 21.26 15.5301 21.26 8.6901C21.26 6.0201 19.1 3.8501 16.45 3.8501C14.93 3.8501 13.52 4.5601 12.61 5.7901C12.33 6.1701 11.69 6.1701 11.41 5.7901C10.48 4.5501 9.08 3.8501 7.56 3.8501Z"
              fill="black"/>
    </g>
    <g id="chart">
        <path d="M2 22H22" stroke="#263141" stroke-width="1.5" stroke-miterlimit="10" stroke-linecap="round"
              stroke-linejoin="round"/>
        <path d="M9.75 4V22H14.25V4C14.25 2.9 13.8 2 12.45 2H11.55C10.2 2 9.75 2.9 9.75 4Z" stroke="#263141"
              stroke-width="1.5" stroke-linecap="round" stroke-linejoin="round"/>
        <path d="M3 10V22H7V10C7 8.9 6.6 8 5.4 8H4.6C3.4 8 3 8.9 3 10Z" stroke="#263141" stroke-width="1.5"
              stroke-linecap="round" stroke-linejoin="round"/>
        <path d="M17 15V22H21V15C21 13.9 20.6 13 19.4 13H18.6C17.4 13 17 13.9 17 15Z" stroke="#263141"
              stroke-width="1.5" stroke-linecap="round" stroke-linejoin="round"/>

    </g>
    <g id="person">
        <path d="M12.1596 11.62C12.1296 11.62 12.1096 11.62 12.0796 11.62C12.0296 11.61 11.9596 11.61 11.8996 11.62C8.99957 11.53 6.80957 9.25 6.80957 6.44C6.80957 3.58 9.13957 1.25 11.9996 1.25C14.8596 1.25 17.1896 3.58 17.1896 6.44C17.1796 9.25 14.9796 11.53 12.1896 11.62C12.1796 11.62 12.1696 11.62 12.1596 11.62ZM11.9996 2.75C9.96957 2.75 8.30957 4.41 8.30957 6.44C8.30957 8.44 9.86957 10.05 11.8596 10.12C11.9096 10.11 12.0496 10.11 12.1796 10.12C14.1396 10.03 15.6796 8.42 15.6896 6.44C15.6896 4.41 14.0296 2.75 11.9996 2.75Z"
              fill="#263141"/>
        <path d="M12.1696 22.55C10.2096 22.55 8.23961 22.05 6.74961 21.05C5.35961 20.13 4.59961 18.87 4.59961 17.5C4.59961 16.13 5.35961 14.86 6.74961 13.93C9.74961 11.94 14.6096 11.94 17.5896 13.93C18.9696 14.85 19.7396 16.11 19.7396 17.48C19.7396 18.85 18.9796 20.12 17.5896 21.05C16.0896 22.05 14.1296 22.55 12.1696 22.55ZM7.57961 15.19C6.61961 15.83 6.09961 16.65 6.09961 17.51C6.09961 18.36 6.62961 19.18 7.57961 19.81C10.0696 21.48 14.2696 21.48 16.7596 19.81C17.7196 19.17 18.2396 18.35 18.2396 17.49C18.2396 16.64 17.7096 15.82 16.7596 15.19C14.2696 13.53 10.0696 13.53 7.57961 15.19Z"
              fill="#263141"/>
    </g>

    <g id="search">
        <path d="M11.5 21.75C5.85 21.75 1.25 17.15 1.25 11.5C1.25 5.85 5.85 1.25 11.5 1.25C17.15 1.25 21.75 5.85 21.75 11.5C21.75 17.15 17.15 21.75 11.5 21.75ZM11.5 2.75C6.67 2.75 2.75 6.68 2.75 11.5C2.75 16.32 6.67 20.25 11.5 20.25C16.33 20.25 20.25 16.32 20.25 11.5C20.25 6.68 16.33 2.75 11.5 2.75Z"
        />
        <path d="M22.0004 22.7499C21.8104 22.7499 21.6204 22.6799 21.4704 22.5299L19.4704 20.5299C19.1804 20.2399 19.1804 19.7599 19.4704 19.4699C19.7604 19.1799 20.2404 19.1799 20.5304 19.4699L22.5304 21.4699C22.8204 21.7599 22.8204 22.2399 22.5304 22.5299C22.3804 22.6799 22.1904 22.7499 22.0004 22.7499Z"
        />

    </g>

    <!--    arrows-->
    <g id="arrowDown">
        <path d="M9.64645 12.9799L5.85355 9.18705C5.53857 8.87207 5.76165 8.3335 6.20711 8.3335H13.7929C14.2383 8.3335 14.4614 8.87207 14.1464 9.18705L10.3536 12.9799C10.1583 13.1752 9.84171 13.1752 9.64645 12.9799Z"
        />
    </g>

    <!-- social icons -->

    <g id="vk">
        <path fill-rule="evenodd" clip-rule="evenodd"
              d="M15.0732 1.99963H8.93763C3.33336 1.99963 2 3.33299 2 8.92685V15.0624C2 20.6667 3.32294 22 8.92721 22H15.0627C20.667 22 22.0004 20.6771 22.0004 15.0728V8.93726C22.0004 3.33299 20.6774 1.99963 15.0732 1.99963ZM17.9378 8.35419C18.3753 8.35419 18.4691 8.57294 18.3753 8.88545C18.2189 9.64002 16.8106 11.679 16.4843 12.1514C16.4412 12.2138 16.417 12.2489 16.417 12.2501C16.2607 12.4897 16.1982 12.6147 16.417 12.8959C16.4915 13.0077 16.6611 13.1738 16.8551 13.3637C17.0408 13.5456 17.2488 13.7493 17.417 13.948C18.042 14.6564 18.5107 15.2502 18.6462 15.6564C18.7712 16.0627 18.5628 16.271 18.1462 16.271H16.6878C16.3009 16.271 16.1033 16.051 15.679 15.5788C15.4979 15.3772 15.2755 15.1296 14.9794 14.8335C14.1148 14.0001 13.7502 13.896 13.5315 13.896C13.2294 13.896 13.1461 13.9793 13.1461 14.396V15.7085C13.1461 16.0627 13.0315 16.271 12.1044 16.271C10.5627 16.271 8.86473 15.3335 7.65637 13.6043C5.84384 11.073 5.35425 9.15629 5.35425 8.77086C5.35425 8.55211 5.43758 8.35419 5.85426 8.35419H7.31262C7.68762 8.35419 7.82304 8.52086 7.96888 8.90628C8.67723 10.9897 9.88558 12.8022 10.3752 12.8022C10.5627 12.8022 10.646 12.7189 10.646 12.2501V10.1042C10.6076 9.50232 10.396 9.23892 10.2386 9.04304C10.14 8.92025 10.0627 8.82399 10.0627 8.68753C10.0627 8.53127 10.2085 8.35419 10.4377 8.35419H12.7294C13.0419 8.35419 13.1461 8.51044 13.1461 8.88545V11.7813C13.1461 12.0938 13.2815 12.198 13.3752 12.198C13.5627 12.198 13.7086 12.0938 14.0523 11.7501C15.1044 10.5834 15.844 8.77086 15.844 8.77086C15.9378 8.55211 16.1045 8.35419 16.4795 8.35419H17.9378Z"
        />
    </g>
    <g id="tiktok">
        <path d="M18.7584 6.27729C18.6183 6.20752 18.4818 6.13104 18.3496 6.04813C17.9651 5.80333 17.6125 5.51489 17.2995 5.18901C16.5165 4.32613 16.224 3.45076 16.1163 2.83787H16.1206C16.0306 2.32915 16.0678 2 16.0734 2H12.5067V15.2818C12.5067 15.4602 12.5067 15.6364 12.4989 15.8106C12.4989 15.8322 12.4967 15.8522 12.4954 15.8756C12.4954 15.8851 12.4954 15.8951 12.4932 15.9051C12.4932 15.9076 12.4932 15.9101 12.4932 15.9126C12.4556 16.3892 12.297 16.8495 12.0313 17.2532C11.7656 17.6568 11.401 17.9914 10.9695 18.2275C10.5197 18.4739 10.0111 18.6032 9.49369 18.6025C7.83188 18.6025 6.48504 17.2976 6.48504 15.686C6.48504 14.0744 7.83188 12.7695 9.49369 12.7695C9.80826 12.7692 10.1209 12.8169 10.42 12.9107L10.4243 9.41338C9.51634 9.30043 8.59391 9.36992 7.71522 9.61747C6.83653 9.86502 6.02065 10.2852 5.31905 10.8516C4.70428 11.366 4.18745 11.9798 3.7918 12.6653C3.64124 12.9153 3.07317 13.9198 3.00437 15.5502C2.96111 16.4755 3.24969 17.4342 3.38727 17.8305V17.8388C3.4738 18.0721 3.8091 18.8683 4.35554 19.5395C4.79617 20.078 5.31675 20.5509 5.90053 20.9432V20.9349L5.90918 20.9432C7.63589 22.0732 9.55036 21.999 9.55036 21.999C9.88177 21.9861 10.992 21.999 12.2527 21.4236C13.651 20.7857 14.4471 19.8354 14.4471 19.8354C14.9557 19.2675 15.3601 18.6204 15.6429 17.9217C15.9657 17.1047 16.0734 16.1247 16.0734 15.7331V8.68675C16.1167 8.71175 16.693 9.07881 16.693 9.07881C16.693 9.07881 17.5232 9.59129 18.8186 9.92502C19.7479 10.1625 21 10.2125 21 10.2125V6.80268C20.5613 6.84851 19.6705 6.71518 18.7584 6.27729Z"
        />
    </g>
    <g id="inst">
        <path fill-rule="evenodd" clip-rule="evenodd"
              d="M7.87701 2.06018C8.94358 2.01151 9.28416 2 12 2C14.7158 2 15.0564 2.01151 16.1229 2.06018C17.1874 2.10873 17.9143 2.27778 18.5504 2.52501C19.208 2.78053 19.7656 3.12245 20.3215 3.67839C20.8775 4.23435 21.2195 4.79203 21.475 5.44958C21.7222 6.08569 21.8913 6.81259 21.9398 7.87701C21.9885 8.94362 22 9.28416 22 12C22 14.7158 21.9885 15.0564 21.9398 16.123C21.8913 17.1874 21.7222 17.9143 21.475 18.5504C21.2195 19.208 20.8775 19.7656 20.3215 20.3215C19.7656 20.8775 19.208 21.2195 18.5504 21.475C17.9143 21.7222 17.1874 21.8913 16.1229 21.9398C15.0564 21.9885 14.7158 22 12 22C9.28416 22 8.94358 21.9885 7.87701 21.9398C6.81259 21.8913 6.08569 21.7222 5.44958 21.475C4.79203 21.2195 4.23432 20.8775 3.67839 20.3215C3.12242 19.7656 2.78053 19.2079 2.52496 18.5504C2.27775 17.9143 2.10873 17.1874 2.06014 16.123C2.01147 15.0564 2 14.7158 2 12C2 9.28413 2.01147 8.94362 2.06014 7.87701C2.10873 6.81259 2.27775 6.08569 2.52496 5.44958C2.78053 4.79203 3.12242 4.23435 3.67839 3.67839C4.23432 3.12245 4.79203 2.78053 5.44958 2.52501C6.08569 2.27778 6.81259 2.10873 7.87701 2.06018ZM16.0408 3.86007C14.9864 3.81196 14.6701 3.8018 12 3.8018C9.32985 3.8018 9.0136 3.81196 7.9591 3.86007C6.98415 3.90457 6.45462 4.06748 6.10225 4.20443C5.63551 4.38584 5.30235 4.60253 4.95244 4.95248C4.60253 5.30239 4.38579 5.63551 4.20438 6.10229C4.06748 6.45466 3.90457 6.98415 3.86007 7.95915C3.81196 9.0136 3.8018 9.32989 3.8018 12C3.8018 14.6701 3.81196 14.9864 3.86007 16.0408C3.90457 17.0158 4.06748 17.5454 4.20438 17.8977C4.38579 18.3645 4.60253 18.6976 4.95244 19.0475C5.30235 19.3975 5.63551 19.6142 6.10225 19.7955C6.45462 19.9325 6.98415 20.0955 7.95915 20.1399C9.01345 20.188 9.32965 20.1982 12 20.1982C14.6703 20.1982 14.9865 20.188 16.0408 20.1399C17.0158 20.0955 17.5453 19.9325 17.8976 19.7955C18.3645 19.6142 18.6976 19.3975 19.0475 19.0475C19.3975 18.6976 19.6141 18.3645 19.7955 17.8977C19.9325 17.5454 20.0954 17.0158 20.1399 16.0408C20.188 14.9864 20.1982 14.6701 20.1982 12C20.1982 9.32989 20.188 9.0136 20.1399 7.95915C20.0954 6.98415 19.9325 6.45466 19.7955 6.10229C19.6141 5.63551 19.3975 5.30239 19.0475 4.95244C18.6976 4.60253 18.3645 4.38584 17.8976 4.20443C17.5453 4.06748 17.0158 3.90457 16.0408 3.86007ZM8.66663 12C8.66663 13.8409 10.159 15.3334 12 15.3334C13.8409 15.3334 15.3334 13.8409 15.3334 12C15.3334 10.159 13.8409 8.66666 12 8.66666C10.159 8.66666 8.66663 10.159 8.66663 12ZM6.86483 12C6.86483 9.16393 9.16393 6.86487 12 6.86487C14.836 6.86487 17.1351 9.16393 17.1351 12C17.1351 14.8361 14.836 17.1351 12 17.1351C9.16393 17.1351 6.86483 14.8361 6.86483 12ZM17.338 7.86196C18.0007 7.86196 18.538 7.32473 18.538 6.66198C18.538 5.99923 18.0007 5.462 17.338 5.462C16.6753 5.462 16.138 5.99923 16.138 6.66198C16.138 7.32473 16.6753 7.86196 17.338 7.86196Z"
        />
    </g>
    <g id="telegram">
        <path d="M20.7215 3.14513L2.92984 10.4988C1.72917 10.9657 1.72917 11.7828 2.71153 12.0163L7.18673 13.5337L8.93315 19.1365C9.15146 19.7202 9.0423 19.9536 9.58806 19.9536C10.0247 19.9536 10.243 19.7202 10.4613 19.4867C10.5704 19.37 11.5528 18.3195 12.6443 17.1522L17.2286 20.7707C18.1019 21.2376 18.6476 21.0042 18.8659 19.9536L21.9221 4.66256C22.2496 3.37858 21.4855 2.67823 20.7215 3.14513ZM18.4293 6.6469L9.91551 14.9344L9.58806 18.7864L7.84164 13.1835L17.8836 6.41345C18.3202 6.06327 18.7568 6.29672 18.4293 6.6469Z"
        />
    </g>
    <g id="youtube">
        <path fill-rule="evenodd" clip-rule="evenodd"
              d="M21.5821 7.2003C21.3521 6.33422 20.6744 5.65211 19.8139 5.42063C18.2542 5 12 5 12 5C12 5 5.74587 5 4.18614 5.42063C3.32565 5.65215 2.64794 6.33422 2.41792 7.2003C2 8.77014 2 12.0455 2 12.0455C2 12.0455 2 15.3207 2.41792 16.8906C2.64794 17.7567 3.32565 18.4104 4.18614 18.6419C5.74587 19.0625 12 19.0625 12 19.0625C12 19.0625 18.2542 19.0625 19.8139 18.6419C20.6744 18.4104 21.3521 17.7567 21.5821 16.8906C22 15.3207 22 12.0455 22 12.0455C22 12.0455 22 8.77014 21.5821 7.2003ZM9.95455 15.0192V9.07172L15.1818 12.0455L9.95455 15.0192Z"
        />
    </g>

</svg>
